<?xml version="1.0" encoding="UTF-8"?><svg id="Calque_2" xmlns="http://www.w3.org/2000/svg" viewBox="0 0 2991.67 2995.57"><defs><style>.cls-1{fill:#fff;}.cls-2{fill:#d20515;}</style></defs><g id="Calque_1-2"><rect class="cls-2" width="2991.67" height="2393.26"/><path class="cls-1" d="m2466.2,1260.01c1.64,5.98-3.64,10.08-14.42,17.94l-6.57,3.64,2.23,4.34c1.52,2.81-1.06,7.04-5.63,9.26l-9.85,4.93c-4.46,2.35-9.38,1.88-10.79-.94l-2.11-3.99-12.43,6.1,1.99,4.22c1.41,2.81-1.29,7.04-5.98,9.15l-9.97,4.69c-4.57,2.11-9.38,1.52-10.79-1.41l-1.76-3.75c-38.35,18.06-81.26,37.17-125.47,57.69l2.46,5.63c1.52,2.81-1.29,6.92-5.75,9.03l-10.08,4.69c-4.57,2.11-9.5,1.41-10.67-1.41l-2.7-5.63-14.19,6.92,2.7,5.75c1.29,2.93-1.29,6.92-5.98,9.15l-9.97,4.57c-4.69,2.11-9.38,1.52-10.79-1.29l-2.58-5.51c-20.05,7.97-41.98,11.73-57.93-18.41-6.8-13.84-7.15-45.62-12.43-62.5-2.19-5.47-7.09-9.38-12.9-10.32-194.89-37.41-260.91,4.22-385.8-26.62-39.28-9.62-60.63-45.73-109.06-46.32-105.54-3.17-136.61-1.64-251.06-5.98-4.93,16.53-5.51,20.17-5.51,20.17l-402.22-1.88,61.45,30.14,19.7,177.42s-16.3,4.69-20.99,5.28c3.87,35.18,7.62,83.26,9.62,126.41,1.76,38.7,3.75,79.04,3.4,104.72.12,16.71-3.91,33.19-11.73,47.96-7.66,12.88-17.93,24.03-30.14,32.72-3.64,2.7-19.23,13.25-37.17,23.45-17.94,10.2-39.52,21.93-50.42,27.09,1.64,4.72,3.56,9.34,5.75,13.84-244.61,118.09-547.75,158.43-645.9,346.28-11.73,21.81-51.24,10.44-52.42-13.02v-37.99h-3.52c-3.17,0-5.63-4.34-5.28-9.5v-11.02c0-5.04,3.05-9.03,6.1-8.91h4.22c1.24-10.85,3.32-21.6,6.22-32.13l-3.75-1.29c-2.93-1.06-3.87-5.86-2.23-10.67l3.64-10.32c1.76-4.81,5.39-7.74,8.56-6.8l3.64,1.29c17.47-40.69,51.13-58.63,66.84-97.21l-2.46-.94c-3.17-1.17-4.1-5.86-2.35-10.67l3.64-10.44c1.76-4.81,5.51-7.74,8.56-6.68l2.7.94c2.35-5.63,5.04-11.73,8.09-17.94l-3.28-2.23c-2.81-1.76-2.81-6.57,0-10.91l5.98-9.26c2.58-4.22,6.92-6.33,9.62-4.57l1.41.82h1.41c.82,0,1.17,0,1.99-.94,1.52-1.68,3.12-3.29,4.81-4.81,15.34-11.33,36.19-11.61,51.83-.7,15.36,9.26,75.4,43.51,133.21-8.44,95.34-85.6,206.86-201.81,290.7-205.8-22.75-49.02-62.27-151.74-66.72-189.62l-28.14-5.98c-14.66-31.54-50.31-177.3-60.39-286.83,0,0-11.73-118.09,0-159.6-6.45-.7-18.29,9.03-21.58,9.15-15.36-37.64,34.48-355.78,83.84-448.42l75.64-30.14c-7.86-.94-62.5-3.4-206.27-15.13-80.09,70.95-172.85,147.52-219.87,189.27-7.97,5.86-21.34,51.36-21.34,51.36,0,0-23.45,20.87-45.85,36.23-29.08,20.4-100.26,36.12-115.74,11.73-3.52-5.98-2.93-8.56,0-11.73,11.02-11.73,52.65-31.43,66.72-57.81-22.75,11.73-48.08,23.45-67.9,21.46-8.68,0-13.13-21.69-1.99-25.56,30.25-12.78,54.18-18.29,72-43.39,17.82-25.09,37.99-40.22,65.43-40.81,0,0,133.68-174.61,212.48-257.98,21.81-22.75,62.27-15.24,62.27-15.24l6.8-26.5s269.71-32.25,395.89,9.38c-2.93-76.34,31.31-177.77,150.8-177.77,61.45,0,151.86,54.29,164.17,120.2,3.75,20.29-7.97,33.77-14.19,59.45-10.67,38.81,4.22,82.09,0,95.57-3.52,11.14-16.07,10.2-26.97,25.33-9.55,14.91-17.82,30.6-24.74,46.91l-16.06,37.64-84.2-6.1c-30.72,66.49-93.81,201.93-116.09,336.2h0c66.14,5.63,365.87,49.02,365.87,49.02l7.27,24.39s126.29,15.13,229.61,64.38c23.45,5.63,81.15-3.05,119.26,14.42,2.58-1.52,8.91-7.97,11.73-9.73,134.74,41.51,246.26,112.11,376.07,143.53,0,0,60.74,14.78,81.15,18.76,34.43,6.69,69.25,11.15,104.25,13.37,41.63,3.28,64.73,2.7,95.1,4.46,21.58,1.29,47.84-2.35,56.4,29.08m192.9-409.72c-91.77,0-166.16,74.39-166.16,166.16s74.39,166.16,166.16,166.16c91.77,0,166.16-74.39,166.16-166.16,0-91.77-74.39-166.16-166.16-166.17-.12,0-.24,0-.35,0h.35Z"/><path d="m264.99,2902.53c0,57.05-26.69,87.41-98.92,87.41H0v-320.7h160.09c74.52,0,100.29,29.44,100.29,83.8,0,41.4-15.65,60.27-59.8,71.31l-8.28,2.3,7.36,1.39c49.68,10.94,65.33,29.36,65.33,74.49Zm-188.55-99.37h67.17c26.69,0,38.68-11.51,38.68-39.11,0-29.01-11.04-40.48-38.68-40.48h-67.23l.06,79.59Zm110.75,91.5c0-29.44-11.96-41.9-39.11-41.9h-71.7v82.8h71.76c28.52.03,39.05-11.93,39.05-40.9Zm129.96-9.2v-216.22h80.05v213.95c0,35.45,16.12,48.77,59.35,48.77s59.4-13.31,59.4-48.77v-213.95h80.05v216.22c0,75.45-43.71,109.96-139.4,109.96s-139.38-34.5-139.38-109.96h-.06Zm654.24-216.22v320.7h-97.51l-136.18-231.92v231.87h-74.53v-320.7h97.53l136.18,231.87v-231.82h74.52Zm65.88,0h143.07c112.24,0,141.69,46.01,141.69,160.09s-32.23,160.56-141.69,160.56h-143.07v-320.65Zm140.77,259.46c46.93,0,62.11-24.38,62.11-99.37s-15.18-98.92-62.11-98.92h-60.72v198.22l60.72.06Zm202.28-259.46h224.51v61.24h-144.51v67.69h120.08v60.27h-120.08v70.39h147.68v61.24h-227.68v-320.83Zm275.14,308.23v-62.56c34.52,11.71,70.74,17.62,107.18,17.49,36.81,0,52.91-9.67,52.91-34.5,0-21.63-6.9-28.06-36.34-34.04l-53.36-11.04c-55.66-11.51-74.13-34.04-74.13-88.8,0-70.38,41.4-100.75,124.67-100.75,37.73,0,73.15,6.45,102.12,17.49v62.56c-31.3-11.17-64.27-16.92-97.5-17.02-39.56,0-52.91,10.57-52.91,35.45,0,20.69,9.2,26.69,34.95,32.23l51.99,11.04c60.27,12.89,76.82,33.12,76.82,90.63,0,68.56-42.32,99.92-128.81,99.92-36.64.17-73.03-5.96-107.6-18.1Zm292.66-308.23h80.05v259.46h137.56v61.24h-217.56l-.05-320.7Zm267.61,0h80.05v320.7h-80.05v-320.7Zm411.54,135.26v174.35c-29.91,10.12-69.47,16.57-110.87,16.57-111.33,0-163.78-49.23-163.78-166.09s52.44-166.09,163.78-166.09c39.56,0,77.35,6.45,105.8,17.95v62.11c-31.28-10.59-66.25-17.02-99.37-17.02-67.17,0-88.33,27.14-88.33,103.04s22.08,105.35,85.56,105.35c14.01.03,28.01-.89,41.9-2.76v-71.76h-59.34v-55.66h124.65Zm261.41,118.22h-125.59l-22.56,67.17h-79.61l114.55-320.7h102.12l114.08,320.7h-80.58l-22.42-67.17Zm-62.09-202.88l-46.41,144.91h92.47l-46.06-144.91Z"/></g></svg>